# xmcd
#
# Track frame offsets:
# 150
# 10792
# 22232
# 33660
# 44700
# 55210
# 65135
# 75285
# 85117
# 97725
# 109340
# 119915
# 131122
# 141452
# 151122
# 162450
# 173895
# 185395
# 197147
# 208425
# 217730
# 229797
# 240227
# 252152
# 262300
# 274207
# 285387
# 296345
# 307705
# 318927
#
# Disc length: 4403 seconds
#
#
# Revision: 0
# Processed by: cddbd v1.4PL0 Copyright (c) Steve Scherf et al.
# Submitted via: FreeRIP 2.11 
#
DISCID=bb11311e
DTITLE=Huey "Piano" Smith and The Clowns - Rockin' Pneumonia and The Boogie Woogie Flu
DYEAR=1900
DGENRE=Blues
TTITLE0=Rockin' Pneumonia and The Boogie Woogie Flu
TTITLE1=Don't You Just Know It
TTITLE2=Having A Good Time
TTITLE3=Don't You Know Yockomo
TTITLE4=Would You Believe It (I Have A Cold)
TTITLE5=Popeye
TTITLE6=Lil Liza Jane (outtake)
TTITLE7=Just A Lonely Clown
TTITLE8=High Blood Pressure
TTITLE9=She Got Low Down
TTITLE10=Somewhere
TTITLE11=We Like Birdland
TTITLE12=Chicka Wah
TTITLE13=Little Chickie Wah Wah
TTITLE14=Well, I'll Be John Brown
TTITLE15=Dearest Darling (outtake)
TTITLE16=Scald Dog
TTITLE17=Hush Your Mouth
TTITLE18=Walking Down The Street (prev. unissued)
TTITLE19=You Can'T Stop Her
TTITLE20=Quit My Job
TTITLE21=Rockin' Behind The Iron Curtain
TTITLE22=Blow Everybody Blow (take 73)
TTITLE23=Alimony
TTITLE24=Hear My Plea (take 4)
TTITLE25=For Cryin' Out Loud
TTITLE26=Tuberculosis ( Sinus Blues
TTITLE27=At The Mardi Gras
TTITLE28=Talk To Me Baby
TTITLE29=We Like Mambo
EXTD=
EXTT0=
EXTT1=
EXTT2=
EXTT3=
EXTT4=
EXTT5=
EXTT6=
EXTT7=
EXTT8=
EXTT9=
EXTT10=
EXTT11=
EXTT12=
EXTT13=
EXTT14=
EXTT15=
EXTT16=
EXTT17=
EXTT18=
EXTT19=
EXTT20=
EXTT21=
EXTT22=
EXTT23=
EXTT24=
EXTT25=
EXTT26=
EXTT27=
EXTT28=
EXTT29=
PLAYORDER=
